<svg width="474" height="130" viewBox="0 0 474 130" fill="none" xmlns="http://www.w3.org/2000/svg">
<path d="M0 127.5L35.3829 2.5H68.9967L104.203 127.5H84.5652L76.4271 98.0357H27.9525L19.8144 127.5H0ZM32.7292 80.1786H71.6504L53.6052 14.4643H50.7745L32.7292 80.1786Z" fill="white"/>
<path d="M162.914 130C153.596 130 145.34 128.333 138.145 125C130.951 121.667 125.29 116.786 121.162 110.357C117.152 103.81 115.147 95.8929 115.147 86.6071V82.1429H134.076V86.6071C134.076 95.4167 136.671 102.024 141.861 106.429C147.168 110.833 154.186 113.036 162.914 113.036C171.759 113.036 178.423 111.19 182.905 107.5C187.387 103.69 189.628 98.8095 189.628 92.8571C189.628 88.9286 188.566 85.7143 186.443 83.2143C184.32 80.7143 181.313 78.75 177.421 77.3214C173.528 75.7738 168.87 74.3452 163.444 73.0357L156.898 71.4286C148.996 69.5238 142.097 67.2024 136.199 64.4643C130.42 61.6071 125.938 57.8571 122.754 53.2143C119.569 48.5714 117.977 42.6191 117.977 35.3571C117.977 27.9762 119.746 21.6667 123.285 16.4286C126.941 11.1905 131.953 7.14286 138.322 4.28571C144.691 1.42857 152.181 0 160.791 0C169.4 0 177.067 1.4881 183.789 4.46429C190.63 7.44048 195.997 11.8452 199.889 17.6786C203.781 23.5119 205.727 30.8333 205.727 39.6429V46.0714H186.797V39.6429C186.797 34.2857 185.677 29.9405 183.436 26.6071C181.313 23.2738 178.305 20.8333 174.413 19.2857C170.521 17.7381 165.98 16.9643 160.791 16.9643C153.242 16.9643 147.345 18.5714 143.099 21.7857C138.971 24.881 136.907 29.2262 136.907 34.8214C136.907 38.631 137.792 41.7857 139.561 44.2857C141.448 46.6667 144.161 48.631 147.699 50.1786C151.237 51.7262 155.66 53.0952 160.967 54.2857L167.513 55.8929C175.533 57.6786 182.61 60 188.743 62.8571C194.876 65.5952 199.712 69.3452 203.25 74.1071C206.788 78.869 208.558 85 208.558 92.5C208.558 100 206.67 106.548 202.896 112.143C199.24 117.738 193.992 122.143 187.151 125.357C180.31 128.452 172.231 130 162.914 130Z" fill="white"/>
<path d="M228.615 127.5V2.5H264.529L291.597 114.643H294.427L321.495 2.5H357.409V127.5H338.833V16.0714H336.002L309.111 127.5H276.913L250.022 16.0714H247.191V127.5H228.615Z" fill="white"/>
<path d="M383.243 127.5V2.5H435.256C442.922 2.5 449.645 3.86905 455.424 6.60714C461.321 9.22619 465.862 13.0357 469.046 18.0357C472.349 23.0357 474 28.9881 474 35.8929V37.8571C474 45.7143 472.113 52.0238 468.339 56.7857C464.682 61.4286 460.201 64.7024 454.893 66.6071V69.4643C459.375 69.7024 462.972 71.25 465.685 74.1071C468.398 76.8452 469.754 80.8333 469.754 86.0714V127.5H450.47V88.75C450.47 85.5357 449.645 82.9762 447.994 81.0714C446.342 79.1667 443.689 78.2143 440.032 78.2143H402.35V127.5H383.243ZM402.35 60.7143H433.133C439.973 60.7143 445.281 58.9881 449.055 55.5357C452.829 51.9643 454.716 47.1429 454.716 41.0714V39.6429C454.716 33.5714 452.829 28.8095 449.055 25.3571C445.399 21.7857 440.091 20 433.133 20H402.35V60.7143Z" fill="white"/>
</svg>
