<svg width="39" height="39" viewBox="0 0 39 39" fill="none" xmlns="http://www.w3.org/2000/svg">
<path fill-rule="evenodd" clip-rule="evenodd" d="M19.5 39C30.2696 39 39 30.2696 39 19.5C39 8.73045 30.2696 0 19.5 0C8.73045 0 0 8.73045 0 19.5C0 30.2696 8.73045 39 19.5 39ZM18.2167 21.915V22.8587H20.6432V22.0049C20.6432 21.6454 20.6956 21.3758 20.8005 21.1961C20.9203 21.0163 21.115 20.8666 21.3846 20.7467L21.8789 20.5221C22.4481 20.2674 22.9873 19.9604 23.4966 19.6009C24.0058 19.2414 24.4177 18.7771 24.7323 18.2079C25.0618 17.6238 25.2266 16.8973 25.2266 16.0286C25.2266 15.1449 24.9869 14.366 24.5076 13.692C24.0433 13.0179 23.3992 12.4862 22.5754 12.0968C21.7516 11.7073 20.808 11.5126 19.7445 11.5126C18.6661 11.5126 17.7 11.7073 16.8462 12.0968C15.9925 12.4712 15.311 13.0254 14.8017 13.7594C14.3074 14.4933 14.0603 15.3695 14.0603 16.3881V17.0171H16.4418V16.3881C16.4418 15.759 16.5916 15.2347 16.8912 14.8153C17.1907 14.3959 17.5876 14.0889 18.0819 13.8942C18.5912 13.6845 19.1454 13.5796 19.7445 13.5796C20.3436 13.5796 20.8754 13.677 21.3397 13.8717C21.804 14.0664 22.171 14.3435 22.4406 14.703C22.7102 15.0625 22.845 15.5043 22.845 16.0286C22.845 16.7475 22.6428 17.3092 22.2384 17.7136C21.834 18.118 21.2723 18.4775 20.5533 18.7921L20.0591 19.0167C19.385 19.3313 18.9057 19.7132 18.6211 20.1626C18.3515 20.6119 18.2167 21.1961 18.2167 21.915ZM18.1718 27.3521C18.5313 27.6966 18.9656 27.8689 19.4749 27.8689C20.0141 27.8689 20.456 27.6966 20.8005 27.3521C21.145 27.0076 21.3172 26.5658 21.3172 26.0266C21.3172 25.4873 21.145 25.053 20.8005 24.7235C20.456 24.379 20.0141 24.2067 19.4749 24.2067C18.9656 24.2067 18.5313 24.379 18.1718 24.7235C17.8273 25.053 17.655 25.4873 17.655 26.0266C17.655 26.5658 17.8273 27.0076 18.1718 27.3521Z" fill="white"/>
</svg>
